<svg xmlns="http://www.w3.org/2000/svg" xmlns:xlink="http://www.w3.org/1999/xlink" contentStyleType="text/css" height="744px" preserveAspectRatio="none" style="width:239px;height:744px;background:#FFFFFF;" version="1.1" viewBox="0 0 239 744" width="239px" zoomAndPan="magnify"><defs/><g><!--cluster 2567a5ec9705eb7ac2c984033e06189d--><g id="cluster_2567a5ec9705eb7ac2c984033e06189d"><polygon fill="none" points="16,132.6,26,122.6,163,122.6,163,617.78,153,627.78,16,627.78,16,132.6" style="stroke:#181818;stroke-width:1.0;"/><line style="stroke:#181818;stroke-width:1.0;" x1="153" x2="163" y1="132.6" y2="122.6"/><line style="stroke:#181818;stroke-width:1.0;" x1="16" x2="153" y1="132.6" y2="132.6"/><line style="stroke:#181818;stroke-width:1.0;" x1="153" x2="153" y1="132.6" y2="627.78"/><text fill="#000000" font-family="sans-serif" font-size="14" font-weight="bold" lengthAdjust="spacing" textLength="35" x="68" y="148.5951">Web</text></g><!--entity 04a565d19766ebe0348853b17c395bd1--><g id="elem_04a565d19766ebe0348853b17c395bd1"><rect fill="#F1F1F1" height="78.8906" rx="2.5" ry="2.5" style="stroke:#181818;stroke-width:0.5;" width="74" x="42" y="170.6"/><rect fill="#F1F1F1" height="10" style="stroke:#181818;stroke-width:0.5;" width="15" x="96" y="175.6"/><rect fill="#F1F1F1" height="2" style="stroke:#181818;stroke-width:0.5;" width="4" x="94" y="177.6"/><rect fill="#F1F1F1" height="2" style="stroke:#181818;stroke-width:0.5;" width="4" x="94" y="181.6"/><text fill="#000000" font-family="sans-serif" font-size="14" font-weight="bold" lengthAdjust="spacing" textLength="34" x="57" y="203.5951">web</text><text fill="#000000" font-family="sans-serif" font-size="14" lengthAdjust="spacing" textLength="4" x="57" y="219.892">&#160;</text><text fill="#000000" font-family="sans-serif" font-size="14" lengthAdjust="spacing" textLength="4" x="57" y="236.1889">&#160;</text></g><!--entity dbef89d558babfa11f9dd654ab596e16--><g id="elem_dbef89d558babfa11f9dd654ab596e16"><ellipse cx="104" cy="339.49" fill="#F1F1F1" rx="8" ry="8" style="stroke:#181818;stroke-width:0.5;"/><text fill="#000000" font-family="sans-serif" font-size="14" lengthAdjust="spacing" textLength="36" x="86" y="369.4851">8002</text></g><!--entity 4ae8434c535c76df893919c2b9c9c766--><g id="elem_4ae8434c535c76df893919c2b9c9c766"><rect fill="#F1F1F1" height="39.2969" rx="2.5" ry="2.5" style="stroke:#181818;stroke-width:0.5;" width="70" x="40" y="564.49"/><polygon fill="#F1F1F1" points="93,569.49,93,583.49,105,583.49,105,575.49,99,569.49,93,569.49" style="stroke:#181818;stroke-width:0.5;"/><line style="stroke:#181818;stroke-width:0.5;" x1="99" x2="99" y1="569.49" y2="575.49"/><line style="stroke:#181818;stroke-width:0.5;" x1="105" x2="99" y1="575.49" y2="575.49"/><text fill="#000000" font-family="sans-serif" font-size="14" lengthAdjust="spacing" textLength="40" x="50" y="590.4851">/code</text></g><!--entity cb2084776f29abf1b693adf8bd4d1d29--><g id="elem_cb2084776f29abf1b693adf8bd4d1d29"><polygon fill="#F1F1F1" points="90,16,100,6,220,6,220,58.5938,210,68.5938,90,68.5938,90,16" style="stroke:#181818;stroke-width:0.5;"/><line style="stroke:#181818;stroke-width:0.5;" x1="210" x2="220" y1="16" y2="6"/><line style="stroke:#181818;stroke-width:0.5;" x1="90" x2="210" y1="16" y2="16"/><line style="stroke:#181818;stroke-width:0.5;" x1="210" x2="210" y1="16" y2="68.5938"/><text fill="#000000" font-family="sans-serif" font-size="14" font-weight="bold" lengthAdjust="spacing" textLength="90" x="105" y="38.9951">myNetwork</text><text fill="#000000" font-family="sans-serif" font-size="14" lengthAdjust="spacing" textLength="74" x="105" y="55.292">&#171;network&#187;</text></g><!--entity 7c5e4b2026abc8126ec20e30a3d6966a--><g id="elem_7c5e4b2026abc8126ec20e30a3d6966a"><ellipse cx="214" cy="474.49" fill="#F1F1F1" rx="8" ry="8" style="stroke:#181818;stroke-width:0.5;"/><text fill="#000000" font-family="sans-serif" font-size="14" lengthAdjust="spacing" textLength="36" x="196" y="504.4851">8002</text></g><!--entity 58b9e70b65a77700ba66e9c64d6b9f89--><g id="elem_58b9e70b65a77700ba66e9c64d6b9f89"><rect fill="#F1F1F1" height="39.2969" rx="2.5" ry="2.5" style="stroke:#181818;stroke-width:0.5;" width="34" x="58" y="698.78"/><polygon fill="#F1F1F1" points="75,703.78,75,717.78,87,717.78,87,709.78,81,703.78,75,703.78" style="stroke:#181818;stroke-width:0.5;"/><line style="stroke:#181818;stroke-width:0.5;" x1="81" x2="81" y1="703.78" y2="709.78"/><line style="stroke:#181818;stroke-width:0.5;" x1="87" x2="81" y1="709.78" y2="709.78"/><text fill="#000000" font-family="sans-serif" font-size="14" lengthAdjust="spacing" textLength="4" x="68" y="724.7751">.</text></g><!--link 04a565d19766ebe0348853b17c395bd1 to dbef89d558babfa11f9dd654ab596e16--><g id="link_04a565d19766ebe0348853b17c395bd1_dbef89d558babfa11f9dd654ab596e16"><path codeLine="14" d="M86.64,249.97 C92.27,278.67 99.45,315.31 102.51,330.91 " fill="none" id="04a565d19766ebe0348853b17c395bd1-dbef89d558babfa11f9dd654ab596e16" style="stroke:#181818;stroke-width:1.0;"/></g><!--link dbef89d558babfa11f9dd654ab596e16 to 7c5e4b2026abc8126ec20e30a3d6966a--><g id="link_dbef89d558babfa11f9dd654ab596e16_7c5e4b2026abc8126ec20e30a3d6966a"><path codeLine="15" d="M110.55,348.41 C130.16,372.12 188.24,442.34 207.62,465.77 " fill="none" id="dbef89d558babfa11f9dd654ab596e16-7c5e4b2026abc8126ec20e30a3d6966a" style="stroke:#181818;stroke-width:1.0;"/></g><!--link 4ae8434c535c76df893919c2b9c9c766 to 58b9e70b65a77700ba66e9c64d6b9f89--><g id="link_4ae8434c535c76df893919c2b9c9c766_58b9e70b65a77700ba66e9c64d6b9f89"><path codeLine="16" d="M75,604.09 C75,629.24 75,673.38 75,698.51 " fill="none" id="4ae8434c535c76df893919c2b9c9c766-58b9e70b65a77700ba66e9c64d6b9f89" style="stroke:#181818;stroke-width:1.0;"/><text fill="#000000" font-family="sans-serif" font-size="13" lengthAdjust="spacing" textLength="14" x="76" y="664.8469">rw</text></g><!--link 04a565d19766ebe0348853b17c395bd1 to 4ae8434c535c76df893919c2b9c9c766--><g id="link_04a565d19766ebe0348853b17c395bd1_4ae8434c535c76df893919c2b9c9c766"><path codeLine="17" d="M69.89,249.52 C66,267.87 61.92,290.19 60,310.49 C51,405.58 64.5811,513.9547 71.1511,558.3247 " fill="none" id="04a565d19766ebe0348853b17c395bd1-to-4ae8434c535c76df893919c2b9c9c766" style="stroke:#181818;stroke-width:1.0;stroke-dasharray:7.0,7.0;"/><polygon fill="#181818" points="72.03,564.26,74.6686,554.7712,71.2976,559.3139,66.7549,555.943,72.03,564.26" style="stroke:#181818;stroke-width:1.0;"/><text fill="#000000" font-family="sans-serif" font-size="13" lengthAdjust="spacing" textLength="23" x="58" y="411.5569">use</text></g><!--reverse link cb2084776f29abf1b693adf8bd4d1d29 to 2567a5ec9705eb7ac2c984033e06189d--><g id="link_cb2084776f29abf1b693adf8bd4d1d29_2567a5ec9705eb7ac2c984033e06189d"><path codeLine="18" d="M155,74.82 C155,86.9075 155,95.5375 155,110.7266 C155,114.5238 155,118.356 155,122.1922 " fill="none" id="cb2084776f29abf1b693adf8bd4d1d29-backto-2567a5ec9705eb7ac2c984033e06189d" style="stroke:#181818;stroke-width:1.0;"/><polygon fill="#181818" points="155,68.82,151,77.82,155,73.82,159,77.82,155,68.82" style="stroke:#181818;stroke-width:1.0;"/></g><!--SRC=[XP9DJYGn38NtEKLKgvcIkYQ_JenG7u4jYnaMTk92BUWgr3HgHeYxawbX0Qii4zdllSysFJwkb-FXzR3SgsMjeeTnFFwzaVDbFJsCuv_b-dhv_zZl1qtFkh0pEQG4iqFYsJAWfpfdhg7Qwl1JvLPuAtSH4aKfc4mKJbHSmHoCzsB0PgpwJUco7f_MHPQpDe4Yn6en0GYByI7dwDccuZ5ojVgt6iUBy3WgfUxKZvzwoCQupQcop4qmnimj5raxOwqG0t5440kAJkV3JEMiXr-bPToQ0aaEFfJeOqdGCD2ZnU8O2xOFKE_VJLA94je4712NR1r8SKQy8Ly10UYBoRGrj3GeoJ14IYaPmzJ8i42emDZiL1TvLtTzjbx1fj8Dtvl6fj8ZqbTwE5s6FjWqrMdQTrVmJ-_bMGRLFQNTosxVlSyF]--></g></svg>