<svg xmlns="http://www.w3.org/2000/svg" xmlns:xlink="http://www.w3.org/1999/xlink" contentStyleType="text/css" height="698px" preserveAspectRatio="none" style="width:1625px;height:698px;background:#FFFFFF;" version="1.1" viewBox="0 0 1625 698" width="1625px" zoomAndPan="magnify"><defs/><g><!--cluster 198e92524f0a06cfa870ba4b9f343f89--><g id="cluster_198e92524f0a06cfa870ba4b9f343f89"><path d="M1356.5,6 L1605.5,6 A3.75,3.75 0 0 1 1608,8.5 L1615,28.2969 L1615.5,28.2969 A2.5,2.5 0 0 1 1618,30.7969 L1618,133.39 A2.5,2.5 0 0 1 1615.5,135.89 L1356.5,135.89 A2.5,2.5 0 0 1 1354,133.39 L1354,8.5 A2.5,2.5 0 0 1 1356.5,6 " fill="none" style="stroke:#000000;stroke-width:1.5;"/><line style="stroke:#000000;stroke-width:1.5;" x1="1354" x2="1615" y1="28.2969" y2="28.2969"/><text fill="#000000" font-family="sans-serif" font-size="14" font-weight="bold" lengthAdjust="spacing" textLength="248" x="1358" y="20.9951">Landbot_ms__slack_notification/</text></g><!--cluster 54cccf7151407c5feba2e793ddce3725--><g id="cluster_54cccf7151407c5feba2e793ddce3725"><path d="M8.5,6 L143.5,6 A3.75,3.75 0 0 1 146,8.5 L153,28.2969 L1327.5,28.2969 A2.5,2.5 0 0 1 1330,30.7969 L1330,688.95 A2.5,2.5 0 0 1 1327.5,691.45 L8.5,691.45 A2.5,2.5 0 0 1 6,688.95 L6,8.5 A2.5,2.5 0 0 1 8.5,6 " fill="none" style="stroke:#000000;stroke-width:1.5;"/><line style="stroke:#000000;stroke-width:1.5;" x1="6" x2="153" y1="28.2969" y2="28.2969"/><text fill="#000000" font-family="sans-serif" font-size="14" font-weight="bold" lengthAdjust="spacing" textLength="134" x="10" y="20.9951">slackNotification/</text></g><!--entity c5fa281acfd1a88e87c10aa82ce9680d--><g id="elem_c5fa281acfd1a88e87c10aa82ce9680d"><rect fill="#F1F1F1" height="78.8906" rx="2.5" ry="2.5" style="stroke:#181818;stroke-width:0.5;" width="70" x="1451" y="41"/><rect fill="#F1F1F1" height="10" style="stroke:#181818;stroke-width:0.5;" width="15" x="1501" y="46"/><rect fill="#F1F1F1" height="2" style="stroke:#181818;stroke-width:0.5;" width="4" x="1499" y="48"/><rect fill="#F1F1F1" height="2" style="stroke:#181818;stroke-width:0.5;" width="4" x="1499" y="52"/><text fill="#000000" font-family="sans-serif" font-size="14" font-weight="bold" lengthAdjust="spacing" textLength="30" x="1466" y="73.9951">urls</text><text fill="#000000" font-family="sans-serif" font-size="14" lengthAdjust="spacing" textLength="4" x="1466" y="90.292">&#160;</text><text fill="#000000" font-family="sans-serif" font-size="14" lengthAdjust="spacing" textLength="4" x="1466" y="106.5889">&#160;</text></g><!--entity cb439561153dea56f96264ae6a85f3bb--><g id="elem_cb439561153dea56f96264ae6a85f3bb"><rect fill="#F1F1F1" height="78.8906" rx="2.5" ry="2.5" style="stroke:#181818;stroke-width:0.5;" width="278" x="1036" y="179.89"/><rect fill="#F1F1F1" height="10" style="stroke:#181818;stroke-width:0.5;" width="15" x="1294" y="184.89"/><rect fill="#F1F1F1" height="2" style="stroke:#181818;stroke-width:0.5;" width="4" x="1292" y="186.89"/><rect fill="#F1F1F1" height="2" style="stroke:#181818;stroke-width:0.5;" width="4" x="1292" y="190.89"/><text fill="#000000" font-family="sans-serif" font-size="14" font-weight="bold" lengthAdjust="spacing" textLength="238" x="1051" y="212.8851">infrastructure/SalesConsumer</text><text fill="#000000" font-family="sans-serif" font-size="14" lengthAdjust="spacing" textLength="4" x="1051" y="229.182">&#160;</text><text fill="#000000" font-family="sans-serif" font-size="14" lengthAdjust="spacing" textLength="4" x="1051" y="245.4789">&#160;</text></g><!--entity 48dd564183303cd404088be78c77051b--><g id="elem_48dd564183303cd404088be78c77051b"><rect fill="#F1F1F1" height="78.8906" rx="2.5" ry="2.5" style="stroke:#181818;stroke-width:0.5;" width="185" x="35.5" y="41"/><rect fill="#F1F1F1" height="10" style="stroke:#181818;stroke-width:0.5;" width="15" x="200.5" y="46"/><rect fill="#F1F1F1" height="2" style="stroke:#181818;stroke-width:0.5;" width="4" x="198.5" y="48"/><rect fill="#F1F1F1" height="2" style="stroke:#181818;stroke-width:0.5;" width="4" x="198.5" y="52"/><text fill="#000000" font-family="sans-serif" font-size="14" font-weight="bold" lengthAdjust="spacing" textLength="145" x="50.5" y="73.9951">infrastructure/urls</text><text fill="#000000" font-family="sans-serif" font-size="14" lengthAdjust="spacing" textLength="4" x="50.5" y="90.292">&#160;</text><text fill="#000000" font-family="sans-serif" font-size="14" lengthAdjust="spacing" textLength="4" x="50.5" y="106.5889">&#160;</text></g><!--entity 50390bfba71a9009a9fda8f35bb563f4--><g id="elem_50390bfba71a9009a9fda8f35bb563f4"><rect fill="#F1F1F1" height="78.8906" rx="2.5" ry="2.5" style="stroke:#181818;stroke-width:0.5;" width="239" x="800.5" y="41"/><rect fill="#F1F1F1" height="10" style="stroke:#181818;stroke-width:0.5;" width="15" x="1019.5" y="46"/><rect fill="#F1F1F1" height="2" style="stroke:#181818;stroke-width:0.5;" width="4" x="1017.5" y="48"/><rect fill="#F1F1F1" height="2" style="stroke:#181818;stroke-width:0.5;" width="4" x="1017.5" y="52"/><text fill="#000000" font-family="sans-serif" font-size="14" font-weight="bold" lengthAdjust="spacing" textLength="199" x="815.5" y="73.9951">infrastructure/containers</text><text fill="#000000" font-family="sans-serif" font-size="14" lengthAdjust="spacing" textLength="4" x="815.5" y="90.292">&#160;</text><text fill="#000000" font-family="sans-serif" font-size="14" lengthAdjust="spacing" textLength="4" x="815.5" y="106.5889">&#160;</text></g><!--entity 3d318a5b9e7489902831daa1180c271c--><g id="elem_3d318a5b9e7489902831daa1180c271c"><rect fill="#F1F1F1" height="78.8906" rx="2.5" ry="2.5" style="stroke:#181818;stroke-width:0.5;" width="201" x="1074.5" y="41"/><rect fill="#F1F1F1" height="10" style="stroke:#181818;stroke-width:0.5;" width="15" x="1255.5" y="46"/><rect fill="#F1F1F1" height="2" style="stroke:#181818;stroke-width:0.5;" width="4" x="1253.5" y="48"/><rect fill="#F1F1F1" height="2" style="stroke:#181818;stroke-width:0.5;" width="4" x="1253.5" y="52"/><text fill="#000000" font-family="sans-serif" font-size="14" font-weight="bold" lengthAdjust="spacing" textLength="161" x="1089.5" y="73.9951">infrastructure/views</text><text fill="#000000" font-family="sans-serif" font-size="14" lengthAdjust="spacing" textLength="4" x="1089.5" y="90.292">&#160;</text><text fill="#000000" font-family="sans-serif" font-size="14" lengthAdjust="spacing" textLength="4" x="1089.5" y="106.5889">&#160;</text></g><!--entity 7f9843ca54b581f6748d13e8435a850d--><g id="elem_7f9843ca54b581f6748d13e8435a850d"><rect fill="#F1F1F1" height="78.8906" rx="2.5" ry="2.5" style="stroke:#181818;stroke-width:0.5;" width="377" x="306.5" y="318.78"/><rect fill="#F1F1F1" height="10" style="stroke:#181818;stroke-width:0.5;" width="15" x="663.5" y="323.78"/><rect fill="#F1F1F1" height="2" style="stroke:#181818;stroke-width:0.5;" width="4" x="661.5" y="325.78"/><rect fill="#F1F1F1" height="2" style="stroke:#181818;stroke-width:0.5;" width="4" x="661.5" y="329.78"/><text fill="#000000" font-family="sans-serif" font-size="14" font-weight="bold" lengthAdjust="spacing" textLength="337" x="321.5" y="351.7751">infrastructure/repository/FakeSlackSender</text><text fill="#000000" font-family="sans-serif" font-size="14" lengthAdjust="spacing" textLength="4" x="321.5" y="368.072">&#160;</text><text fill="#000000" font-family="sans-serif" font-size="14" lengthAdjust="spacing" textLength="4" x="321.5" y="384.3689">&#160;</text></g><!--entity 9d681f6d2d5cc5f2ecc3ed1cedb08c79--><g id="elem_9d681f6d2d5cc5f2ecc3ed1cedb08c79"><rect fill="#F1F1F1" height="78.8906" rx="2.5" ry="2.5" style="stroke:#181818;stroke-width:0.5;" width="195" x="255.5" y="41"/><rect fill="#F1F1F1" height="10" style="stroke:#181818;stroke-width:0.5;" width="15" x="430.5" y="46"/><rect fill="#F1F1F1" height="2" style="stroke:#181818;stroke-width:0.5;" width="4" x="428.5" y="48"/><rect fill="#F1F1F1" height="2" style="stroke:#181818;stroke-width:0.5;" width="4" x="428.5" y="52"/><text fill="#000000" font-family="sans-serif" font-size="14" font-weight="bold" lengthAdjust="spacing" textLength="155" x="270.5" y="73.9951">infrastructure/tests</text><text fill="#000000" font-family="sans-serif" font-size="14" lengthAdjust="spacing" textLength="4" x="270.5" y="90.292">&#160;</text><text fill="#000000" font-family="sans-serif" font-size="14" lengthAdjust="spacing" textLength="4" x="270.5" y="106.5889">&#160;</text></g><!--entity c41888897eeb083ad3bc82719ecd4cf3--><g id="elem_c41888897eeb083ad3bc82719ecd4cf3"><rect fill="#F1F1F1" height="78.8906" rx="2.5" ry="2.5" style="stroke:#181818;stroke-width:0.5;" width="193" x="485.5" y="41"/><rect fill="#F1F1F1" height="10" style="stroke:#181818;stroke-width:0.5;" width="15" x="658.5" y="46"/><rect fill="#F1F1F1" height="2" style="stroke:#181818;stroke-width:0.5;" width="4" x="656.5" y="48"/><rect fill="#F1F1F1" height="2" style="stroke:#181818;stroke-width:0.5;" width="4" x="656.5" y="52"/><text fill="#000000" font-family="sans-serif" font-size="14" font-weight="bold" lengthAdjust="spacing" textLength="153" x="500.5" y="73.9951">infrastructure/apps</text><text fill="#000000" font-family="sans-serif" font-size="14" lengthAdjust="spacing" textLength="4" x="500.5" y="90.292">&#160;</text><text fill="#000000" font-family="sans-serif" font-size="14" lengthAdjust="spacing" textLength="4" x="500.5" y="106.5889">&#160;</text></g><!--entity f5f0fe447e05edf7b606f9fd4783420b--><g id="elem_f5f0fe447e05edf7b606f9fd4783420b"><rect fill="#F1F1F1" height="78.8906" rx="2.5" ry="2.5" style="stroke:#181818;stroke-width:0.5;" width="212" x="22" y="179.89"/><rect fill="#F1F1F1" height="10" style="stroke:#181818;stroke-width:0.5;" width="15" x="214" y="184.89"/><rect fill="#F1F1F1" height="2" style="stroke:#181818;stroke-width:0.5;" width="4" x="212" y="186.89"/><rect fill="#F1F1F1" height="2" style="stroke:#181818;stroke-width:0.5;" width="4" x="212" y="190.89"/><text fill="#000000" font-family="sans-serif" font-size="14" font-weight="bold" lengthAdjust="spacing" textLength="172" x="37" y="212.8851">infrastructure/models</text><text fill="#000000" font-family="sans-serif" font-size="14" lengthAdjust="spacing" textLength="4" x="37" y="229.182">&#160;</text><text fill="#000000" font-family="sans-serif" font-size="14" lengthAdjust="spacing" textLength="4" x="37" y="245.4789">&#160;</text></g><!--entity 049ab1df424b82e70fd3f79955b668a5--><g id="elem_049ab1df424b82e70fd3f79955b668a5"><rect fill="#F1F1F1" height="78.8906" rx="2.5" ry="2.5" style="stroke:#181818;stroke-width:0.5;" width="202" x="269" y="179.89"/><rect fill="#F1F1F1" height="10" style="stroke:#181818;stroke-width:0.5;" width="15" x="451" y="184.89"/><rect fill="#F1F1F1" height="2" style="stroke:#181818;stroke-width:0.5;" width="4" x="449" y="186.89"/><rect fill="#F1F1F1" height="2" style="stroke:#181818;stroke-width:0.5;" width="4" x="449" y="190.89"/><text fill="#000000" font-family="sans-serif" font-size="14" font-weight="bold" lengthAdjust="spacing" textLength="162" x="284" y="212.8851">infrastructure/admin</text><text fill="#000000" font-family="sans-serif" font-size="14" lengthAdjust="spacing" textLength="4" x="284" y="229.182">&#160;</text><text fill="#000000" font-family="sans-serif" font-size="14" lengthAdjust="spacing" textLength="4" x="284" y="245.4789">&#160;</text></g><!--entity 005ed71774514a6ba245cb846f9ae055--><g id="elem_005ed71774514a6ba245cb846f9ae055"><rect fill="#F1F1F1" height="78.8906" rx="2.5" ry="2.5" style="stroke:#181818;stroke-width:0.5;" width="350" x="792" y="318.78"/><rect fill="#F1F1F1" height="10" style="stroke:#181818;stroke-width:0.5;" width="15" x="1122" y="323.78"/><rect fill="#F1F1F1" height="2" style="stroke:#181818;stroke-width:0.5;" width="4" x="1120" y="325.78"/><rect fill="#F1F1F1" height="2" style="stroke:#181818;stroke-width:0.5;" width="4" x="1120" y="329.78"/><text fill="#000000" font-family="sans-serif" font-size="14" font-weight="bold" lengthAdjust="spacing" textLength="310" x="807" y="351.7751">application/service/NotifySalesUseCase</text><text fill="#000000" font-family="sans-serif" font-size="14" lengthAdjust="spacing" textLength="4" x="807" y="368.072">&#160;</text><text fill="#000000" font-family="sans-serif" font-size="14" lengthAdjust="spacing" textLength="4" x="807" y="384.3689">&#160;</text></g><!--entity b9ea57be014e18d828cf1749dbc45343--><g id="elem_b9ea57be014e18d828cf1749dbc45343"><rect fill="#F1F1F1" height="78.8906" rx="2.5" ry="2.5" style="stroke:#181818;stroke-width:0.5;" width="385" x="542.5" y="179.89"/><rect fill="#F1F1F1" height="10" style="stroke:#181818;stroke-width:0.5;" width="15" x="907.5" y="184.89"/><rect fill="#F1F1F1" height="2" style="stroke:#181818;stroke-width:0.5;" width="4" x="905.5" y="186.89"/><rect fill="#F1F1F1" height="2" style="stroke:#181818;stroke-width:0.5;" width="4" x="905.5" y="190.89"/><text fill="#000000" font-family="sans-serif" font-size="14" font-weight="bold" lengthAdjust="spacing" textLength="345" x="557.5" y="212.8851">application/service/NotifySalesUseCaseTest</text><text fill="#000000" font-family="sans-serif" font-size="14" lengthAdjust="spacing" textLength="4" x="557.5" y="229.182">&#160;</text><text fill="#000000" font-family="sans-serif" font-size="14" lengthAdjust="spacing" textLength="4" x="557.5" y="245.4789">&#160;</text></g><!--entity 05f5686e349ed7d6be1816291b404e71--><g id="elem_05f5686e349ed7d6be1816291b404e71"><rect fill="#F1F1F1" height="78.8906" rx="2.5" ry="2.5" style="stroke:#181818;stroke-width:0.5;" width="235" x="587.5" y="596.56"/><rect fill="#F1F1F1" height="10" style="stroke:#181818;stroke-width:0.5;" width="15" x="802.5" y="601.56"/><rect fill="#F1F1F1" height="2" style="stroke:#181818;stroke-width:0.5;" width="4" x="800.5" y="603.56"/><rect fill="#F1F1F1" height="2" style="stroke:#181818;stroke-width:0.5;" width="4" x="800.5" y="607.56"/><text fill="#000000" font-family="sans-serif" font-size="14" font-weight="bold" lengthAdjust="spacing" textLength="195" x="602.5" y="629.5551">application/dto/SlackDTO</text><text fill="#000000" font-family="sans-serif" font-size="14" lengthAdjust="spacing" textLength="4" x="602.5" y="645.852">&#160;</text><text fill="#000000" font-family="sans-serif" font-size="14" lengthAdjust="spacing" textLength="4" x="602.5" y="662.1489">&#160;</text></g><!--entity e09634839fa8c8e3099671209f192e78--><g id="elem_e09634839fa8c8e3099671209f192e78"><rect fill="#F1F1F1" height="78.8906" rx="2.5" ry="2.5" style="stroke:#181818;stroke-width:0.5;" width="377" x="934.5" y="457.67"/><rect fill="#F1F1F1" height="10" style="stroke:#181818;stroke-width:0.5;" width="15" x="1291.5" y="462.67"/><rect fill="#F1F1F1" height="2" style="stroke:#181818;stroke-width:0.5;" width="4" x="1289.5" y="464.67"/><rect fill="#F1F1F1" height="2" style="stroke:#181818;stroke-width:0.5;" width="4" x="1289.5" y="468.67"/><text fill="#000000" font-family="sans-serif" font-size="14" font-weight="bold" lengthAdjust="spacing" textLength="337" x="949.5" y="490.6651">application/command/NotifySalesCommand</text><text fill="#000000" font-family="sans-serif" font-size="14" lengthAdjust="spacing" textLength="4" x="949.5" y="506.962">&#160;</text><text fill="#000000" font-family="sans-serif" font-size="14" lengthAdjust="spacing" textLength="4" x="949.5" y="523.2589">&#160;</text></g><!--entity 1dd586232a28e3c90a51a258dcab9dc9--><g id="elem_1dd586232a28e3c90a51a258dcab9dc9"><rect fill="#F1F1F1" height="78.8906" rx="2.5" ry="2.5" style="stroke:#181818;stroke-width:0.5;" width="315" x="547.5" y="457.67"/><rect fill="#F1F1F1" height="10" style="stroke:#181818;stroke-width:0.5;" width="15" x="842.5" y="462.67"/><rect fill="#F1F1F1" height="2" style="stroke:#181818;stroke-width:0.5;" width="4" x="840.5" y="464.67"/><rect fill="#F1F1F1" height="2" style="stroke:#181818;stroke-width:0.5;" width="4" x="840.5" y="468.67"/><text fill="#000000" font-family="sans-serif" font-size="14" font-weight="bold" lengthAdjust="spacing" textLength="275" x="562.5" y="490.6651">application/repository/SlackSender</text><text fill="#000000" font-family="sans-serif" font-size="14" lengthAdjust="spacing" textLength="4" x="562.5" y="506.962">&#160;</text><text fill="#000000" font-family="sans-serif" font-size="14" lengthAdjust="spacing" textLength="4" x="562.5" y="523.2589">&#160;</text></g><!--link cb439561153dea56f96264ae6a85f3bb to e09634839fa8c8e3099671209f192e78--><g id="link_cb439561153dea56f96264ae6a85f3bb_e09634839fa8c8e3099671209f192e78"><path codeLine="81" d="M1174.39,259.18 C1173.15,295.41 1169.5,350.76 1159,397.67 C1154.47,417.91 1149.0363,434.0704 1141.9663,451.9504 " fill="none" id="cb439561153dea56f96264ae6a85f3bb-to-e09634839fa8c8e3099671209f192e78" style="stroke:#181818;stroke-width:1.0;"/><polygon fill="#181818" points="1139.76,457.53,1146.7892,450.6314,1141.5986,452.8803,1139.3496,447.6897,1139.76,457.53" style="stroke:#181818;stroke-width:1.0;"/></g><!--link cb439561153dea56f96264ae6a85f3bb to 005ed71774514a6ba245cb846f9ae055--><g id="link_cb439561153dea56f96264ae6a85f3bb_005ed71774514a6ba245cb846f9ae055"><path codeLine="82" d="M1115.95,259.19 C1087.73,277.77 1059.0414,296.6406 1030.8514,315.2006 " fill="none" id="cb439561153dea56f96264ae6a85f3bb-to-005ed71774514a6ba245cb846f9ae055" style="stroke:#181818;stroke-width:1.0;"/><polygon fill="#181818" points="1025.84,318.5,1035.5567,316.8918,1030.0161,315.7505,1031.1574,310.2099,1025.84,318.5" style="stroke:#181818;stroke-width:1.0;"/></g><!--link 50390bfba71a9009a9fda8f35bb563f4 to 005ed71774514a6ba245cb846f9ae055--><g id="link_50390bfba71a9009a9fda8f35bb563f4_005ed71774514a6ba245cb846f9ae055"><path codeLine="83" d="M930.98,120 C935.82,138.07 941.25,159.96 945,179.89 C953.92,227.3 959.5405,276.568 963.0405,312.638 " fill="none" id="50390bfba71a9009a9fda8f35bb563f4-to-005ed71774514a6ba245cb846f9ae055" style="stroke:#181818;stroke-width:1.0;"/><polygon fill="#181818" points="963.62,318.61,966.7321,309.2658,963.1371,313.6334,958.7695,310.0384,963.62,318.61" style="stroke:#181818;stroke-width:1.0;"/></g><!--link 50390bfba71a9009a9fda8f35bb563f4 to cb439561153dea56f96264ae6a85f3bb--><g id="link_50390bfba71a9009a9fda8f35bb563f4_cb439561153dea56f96264ae6a85f3bb"><path codeLine="84" d="M992.39,120.3 C1026.99,138.88 1063.0137,158.2119 1097.5837,176.7719 " fill="none" id="50390bfba71a9009a9fda8f35bb563f4-to-cb439561153dea56f96264ae6a85f3bb" style="stroke:#181818;stroke-width:1.0;"/><polygon fill="#181818" points="1102.87,179.61,1096.8326,171.8286,1098.4647,177.2449,1093.0485,178.877,1102.87,179.61" style="stroke:#181818;stroke-width:1.0;"/></g><!--link 50390bfba71a9009a9fda8f35bb563f4 to 7f9843ca54b581f6748d13e8435a850d--><g id="link_50390bfba71a9009a9fda8f35bb563f4_7f9843ca54b581f6748d13e8435a850d"><path codeLine="85" d="M800.05,116.41 C766.5,125.78 729.92,135.6 696,143.89 C620.55,162.33 578.81,123.88 525,179.89 C489.74,216.59 486.7991,272.4648 489.6191,312.5648 " fill="none" id="50390bfba71a9009a9fda8f35bb563f4-to-7f9843ca54b581f6748d13e8435a850d" style="stroke:#181818;stroke-width:1.0;"/><polygon fill="#181818" points="490.04,318.55,493.3988,309.2916,489.6892,313.5623,485.4185,309.8528,490.04,318.55" style="stroke:#181818;stroke-width:1.0;"/></g><!--link 3d318a5b9e7489902831daa1180c271c to 005ed71774514a6ba245cb846f9ae055--><g id="link_3d318a5b9e7489902831daa1180c271c_005ed71774514a6ba245cb846f9ae055"><path codeLine="86" d="M1102.89,120.33 C1067.94,140.45 1030.96,164.04 1019,179.89 C988.07,220.86 976.2747,273.9415 971.1947,312.4515 " fill="none" id="3d318a5b9e7489902831daa1180c271c-to-005ed71774514a6ba245cb846f9ae055" style="stroke:#181818;stroke-width:1.0;"/><polygon fill="#181818" points="970.41,318.4,975.5527,310.0004,971.0639,313.4429,967.6214,308.9542,970.41,318.4" style="stroke:#181818;stroke-width:1.0;"/></g><!--link 3d318a5b9e7489902831daa1180c271c to cb439561153dea56f96264ae6a85f3bb--><g id="link_3d318a5b9e7489902831daa1180c271c_cb439561153dea56f96264ae6a85f3bb"><path codeLine="87" d="M1175,120.3 C1175,138.96 1175,155.24 1175,173.85 " fill="none" id="3d318a5b9e7489902831daa1180c271c-to-cb439561153dea56f96264ae6a85f3bb" style="stroke:#181818;stroke-width:1.0;"/><polygon fill="#181818" points="1175,179.85,1179,170.85,1175,174.85,1171,170.85,1175,179.85" style="stroke:#181818;stroke-width:1.0;"/></g><!--link 7f9843ca54b581f6748d13e8435a850d to 05f5686e349ed7d6be1816291b404e71--><g id="link_7f9843ca54b581f6748d13e8435a850d_05f5686e349ed7d6be1816291b404e71"><path codeLine="88" d="M493.65,397.81 C494.21,436.41 500.46,495.76 530,536.56 C548.19,561.69 569.6266,578.3695 596.7066,593.1895 " fill="none" id="7f9843ca54b581f6748d13e8435a850d-to-05f5686e349ed7d6be1816291b404e71" style="stroke:#181818;stroke-width:1.0;"/><polygon fill="#181818" points="601.97,596.07,595.9953,588.2404,597.5839,593.6696,592.1547,595.2582,601.97,596.07" style="stroke:#181818;stroke-width:1.0;"/></g><!--link 7f9843ca54b581f6748d13e8435a850d to 1dd586232a28e3c90a51a258dcab9dc9--><g id="link_7f9843ca54b581f6748d13e8435a850d_1dd586232a28e3c90a51a258dcab9dc9"><path codeLine="89" d="M554.62,398.08 C583.11,416.66 612.1029,435.5645 640.5729,454.1145 " fill="none" id="7f9843ca54b581f6748d13e8435a850d-to-1dd586232a28e3c90a51a258dcab9dc9" style="stroke:#181818;stroke-width:1.0;"/><polygon fill="#181818" points="645.6,457.39,640.243,449.1254,641.4108,454.6605,635.8758,455.8282,645.6,457.39" style="stroke:#181818;stroke-width:1.0;"/></g><!--link 005ed71774514a6ba245cb846f9ae055 to e09634839fa8c8e3099671209f192e78--><g id="link_005ed71774514a6ba245cb846f9ae055_e09634839fa8c8e3099671209f192e78"><path codeLine="90" d="M1011.29,398.08 C1032.45,416.66 1053.2201,434.8826 1074.3601,453.4326 " fill="none" id="005ed71774514a6ba245cb846f9ae055-to-e09634839fa8c8e3099671209f192e78" style="stroke:#181818;stroke-width:1.0;"/><polygon fill="#181818" points="1078.87,457.39,1074.7434,448.4473,1075.1117,454.0922,1069.4669,454.4606,1078.87,457.39" style="stroke:#181818;stroke-width:1.0;"/></g><!--link 005ed71774514a6ba245cb846f9ae055 to 05f5686e349ed7d6be1816291b404e71--><g id="link_005ed71774514a6ba245cb846f9ae055_05f5686e349ed7d6be1816291b404e71"><path codeLine="91" d="M947.01,397.89 C937.75,415.98 926.67,437.86 917,457.67 C900.01,492.47 906.35,508.18 880,536.56 C857.35,560.95 832.5369,578.0317 803.6869,593.3817 " fill="none" id="005ed71774514a6ba245cb846f9ae055-to-05f5686e349ed7d6be1816291b404e71" style="stroke:#181818;stroke-width:1.0;"/><polygon fill="#181818" points="798.39,596.2,808.2142,595.5038,802.8041,593.8514,804.4565,588.4413,798.39,596.2" style="stroke:#181818;stroke-width:1.0;"/></g><!--link 005ed71774514a6ba245cb846f9ae055 to 1dd586232a28e3c90a51a258dcab9dc9--><g id="link_005ed71774514a6ba245cb846f9ae055_1dd586232a28e3c90a51a258dcab9dc9"><path codeLine="92" d="M892.62,398.08 C857.07,416.66 819.9484,436.0625 784.4284,454.6125 " fill="none" id="005ed71774514a6ba245cb846f9ae055-to-1dd586232a28e3c90a51a258dcab9dc9" style="stroke:#181818;stroke-width:1.0;"/><polygon fill="#181818" points="779.11,457.39,788.9393,456.7694,783.542,455.0754,785.236,449.6781,779.11,457.39" style="stroke:#181818;stroke-width:1.0;"/></g><!--link b9ea57be014e18d828cf1749dbc45343 to e09634839fa8c8e3099671209f192e78--><g id="link_b9ea57be014e18d828cf1749dbc45343_e09634839fa8c8e3099671209f192e78"><path codeLine="93" d="M732.99,259.12 C733.11,299.02 739.72,360.44 775,397.67 C798.59,422.56 859.5862,442.7375 928.4662,459.2975 " fill="none" id="b9ea57be014e18d828cf1749dbc45343-to-e09634839fa8c8e3099671209f192e78" style="stroke:#181818;stroke-width:1.0;"/><polygon fill="#181818" points="934.3,460.7,926.4844,454.707,929.4385,459.5312,924.6143,462.4854,934.3,460.7" style="stroke:#181818;stroke-width:1.0;"/></g><!--link b9ea57be014e18d828cf1749dbc45343 to 1dd586232a28e3c90a51a258dcab9dc9--><g id="link_b9ea57be014e18d828cf1749dbc45343_1dd586232a28e3c90a51a258dcab9dc9"><path codeLine="94" d="M730.77,259.26 C725.05,311.82 715.5694,398.9652 709.8594,451.4152 " fill="none" id="b9ea57be014e18d828cf1749dbc45343-to-1dd586232a28e3c90a51a258dcab9dc9" style="stroke:#181818;stroke-width:1.0;"/><polygon fill="#181818" points="709.21,457.38,714.1605,448.8658,709.7511,452.4094,706.2075,448,709.21,457.38" style="stroke:#181818;stroke-width:1.0;"/></g><!--link b9ea57be014e18d828cf1749dbc45343 to 005ed71774514a6ba245cb846f9ae055--><g id="link_b9ea57be014e18d828cf1749dbc45343_005ed71774514a6ba245cb846f9ae055"><path codeLine="95" d="M800.86,259.19 C832.34,277.77 864.7627,296.8906 896.2127,315.4506 " fill="none" id="b9ea57be014e18d828cf1749dbc45343-to-005ed71774514a6ba245cb846f9ae055" style="stroke:#181818;stroke-width:1.0;"/><polygon fill="#181818" points="901.38,318.5,895.662,310.481,897.0739,315.9588,891.5961,317.3707,901.38,318.5" style="stroke:#181818;stroke-width:1.0;"/></g><!--link 1dd586232a28e3c90a51a258dcab9dc9 to 05f5686e349ed7d6be1816291b404e71--><g id="link_1dd586232a28e3c90a51a258dcab9dc9_05f5686e349ed7d6be1816291b404e71"><path codeLine="96" d="M705,536.98 C705,555.63 705,571.91 705,590.52 " fill="none" id="1dd586232a28e3c90a51a258dcab9dc9-to-05f5686e349ed7d6be1816291b404e71" style="stroke:#181818;stroke-width:1.0;"/><polygon fill="#181818" points="705,596.52,709,587.52,705,591.52,701,587.52,705,596.52" style="stroke:#181818;stroke-width:1.0;"/></g><!--SRC=[hPHFYzn83CNl_XHDZWEXwtz9bxtCabD83fCzBSkWKgc2IRVTs9vamvBllZKz2JDP6yeByR70Fpr9JuzEf_7BkV-x7pvs5-9Fz54EhzxIaDEut9_d-_lvL5_lXt7fIy-qzEDmV7MW-Q0H18qthYXIWGj1L8bSmcATBO27VpeUpvTna64vi2zaG1ENh0b08B9MH61OC83AXp-xcvk7wJJVt7HTzrVtxLdBjVwxLNdlcBb4xRLJiU8baP68DcSM6ut_kNno5dtGsjiiv4F1O88Z2GI-s9IkvVkXJ3GlqmCl3vCSx-Way-qup0zdcRxBUYOwoDa7fy5QPJaxvHH0aWWSe_9wa_YYlsUGLnPLAecY9bGA2KicADQdv8CjRWl4ux1GFyYqnjbiDP1FAD41eZ9WTIRI6XIRg7aBzxcNBsjIB0ZECdcNFEWIAYzhA_NDrwbzNzb_I9DSnhbVnkdhyGrzahl7rTt9a3S6Y3ayKhF9dklwZ31RoPeb9rM7Y5luHUPbBPJh5kg7KQJ-QYdRn51xHQbxuMAtI7Ivh4755rN4kIZAIoun1LMTKhABO9rHcpizZrasjgeSKjAvEECIL5-gacs9YDwd4Ef-DZNbSp-iIOzQeexHLQTJg2vtdXEugeogpYTIRUVqupfccJxtBCVhoNozklYFMMvfbXMxkeHyJAAq4mqP373HqM5Ex7ozul_1_b1NizRkYmyGn3giFUIGQXKT3EfKxqMYNl7pCXwlfldzm_iLJHG6wy1YZHe6iGenH6qK5errnB2YrL_FDSXUghrzUbgnTRrc2CQQcb9Y6HLvJSP3PagO6LVi5qvVk_nRrmoSr_drRysETc9Q5kcQ6VChCItDEp6j-EcQIRUlgNsOPbFDj7nIqpY8dPYMMxjcQEoptpvCiwbzc6PJpRJQrzG-p2zIqxHVCtXsZVXV]--></g></svg>